<svg width="374" height="477" viewBox="0 0 374 477" fill="none" xmlns="http://www.w3.org/2000/svg">
<line x1="186.5" y1="99" x2="186.5" y2="356" stroke="white" stroke-width="3" stroke-dasharray="6 6"/>
<g filter="url(#filter0_d)">
<circle cx="187" cy="64" r="45" fill="white"/>
</g>
<path d="M179.113 72.64L163.785 65.856V63.872L179.113 56.192V59.488L167.913 64.704L179.113 69.344V72.64ZM193.137 53.152L184.625 76H180.881L189.393 53.152H193.137ZM194.847 69.344L206.047 64.736L194.847 59.488V56.192L210.175 63.872V65.856L194.847 72.64V69.344Z" fill="#0786FF"/>
<g filter="url(#filter1_d)">
<rect x="40" y="168" width="294" height="90.8632" rx="45.4316" fill="white"/>
</g>
<rect opacity="0.01" x="72.8987" y="196.199" width="36.5542" height="34.9876" fill="#1890FF"/>
<path fill-rule="evenodd" clip-rule="evenodd" d="M79.0237 212.246H103.33C105.912 212.246 107.887 210.363 107.887 207.902V202.11C107.887 199.649 105.912 197.766 103.33 197.766H79.0237C76.4412 197.766 74.4663 199.649 74.4663 202.11V207.902C74.4663 210.363 76.4412 212.246 79.0237 212.246ZM77.5036 202.109C77.5036 201.241 78.1112 200.661 79.0227 200.661H103.329C104.24 200.661 104.848 201.241 104.848 202.109V207.901C104.848 208.77 104.24 209.349 103.329 209.349H79.0227C78.1112 209.349 77.5036 208.77 77.5036 207.901V202.109ZM103.329 229.62H79.0227C76.4402 229.62 74.4653 227.738 74.4653 225.276V219.484C74.4653 217.023 76.4402 215.141 79.0227 215.141H103.329C105.911 215.141 107.886 217.023 107.886 219.484V225.276C107.886 227.738 105.911 229.62 103.329 229.62ZM77.5036 219.484C77.5036 218.616 78.1112 218.036 79.0227 218.036H103.329C104.24 218.036 104.848 218.616 104.848 219.484V225.276C104.848 226.145 104.24 226.724 103.329 226.724H79.0227C78.1112 226.724 77.5036 226.145 77.5036 225.276V219.484ZM82.061 206.453C81.9091 206.453 81.6053 206.453 81.4534 206.308C81.3015 206.308 81.1495 206.164 80.9976 206.019C80.6938 205.729 80.5419 205.44 80.5419 205.005C80.5419 204.86 80.5419 204.571 80.6938 204.426C80.7698 204.354 80.8077 204.281 80.8457 204.209C80.8837 204.136 80.9217 204.064 80.9976 203.992C81.1495 203.847 81.3015 203.702 81.4534 203.702C82.061 203.412 82.6687 203.557 83.1244 203.992C83.2763 204.136 83.4282 204.281 83.4282 204.426C83.5802 204.571 83.5802 204.86 83.5802 205.005V205.295C83.5802 205.356 83.5802 205.391 83.5689 205.422C83.5533 205.465 83.5163 205.5 83.4282 205.584C83.4282 205.657 83.3903 205.693 83.3523 205.729C83.3143 205.765 83.2763 205.802 83.2763 205.874L83.1244 206.019C82.9725 206.019 82.9725 206.164 82.9725 206.164C82.8965 206.164 82.8586 206.2 82.8206 206.236C82.7826 206.272 82.7446 206.308 82.6687 206.308C82.5927 206.308 82.5547 206.344 82.5168 206.381C82.4788 206.417 82.4408 206.453 82.3648 206.453H82.061ZM80.9976 223.394C81.3015 223.683 81.6053 223.828 82.061 223.828C82.5168 223.828 82.8206 223.683 83.1244 223.394C83.2004 223.321 83.2384 223.249 83.2763 223.177C83.3143 223.104 83.3523 223.032 83.4282 222.959C83.5802 222.815 83.5802 222.525 83.5802 222.38C83.5802 222.235 83.5802 221.946 83.4282 221.801C83.4282 221.656 83.2763 221.512 83.1244 221.367C82.5168 220.788 81.6053 220.788 80.9976 221.367C80.9217 221.439 80.8837 221.512 80.8457 221.584C80.8077 221.656 80.7698 221.729 80.6938 221.801C80.5419 221.946 80.5419 222.235 80.5419 222.38C80.5419 222.815 80.6938 223.104 80.9976 223.394Z" fill="#1890FF"/>
<rect opacity="0.01" x="137.13" y="196.199" width="37.0764" height="34.9876" fill="#1890FF"/>
<path fill-rule="evenodd" clip-rule="evenodd" d="M143.326 212.246H168.012C170.635 212.246 172.64 210.363 172.64 207.902V202.11C172.64 199.649 170.635 197.766 168.012 197.766H143.326C140.703 197.766 138.697 199.649 138.697 202.11V207.902C138.697 210.363 140.703 212.246 143.326 212.246ZM141.782 202.109C141.782 201.241 142.399 200.661 143.325 200.661H168.011C168.937 200.661 169.554 201.241 169.554 202.109V207.901C169.554 208.77 168.937 209.349 168.011 209.349H143.325C142.399 209.349 141.782 208.77 141.782 207.901V202.109ZM168.011 229.62H143.325C140.702 229.62 138.696 227.738 138.696 225.276V219.484C138.696 217.023 140.702 215.141 143.325 215.141H168.011C170.634 215.141 172.639 217.023 172.639 219.484V225.276C172.639 227.738 170.634 229.62 168.011 229.62ZM141.782 219.484C141.782 218.616 142.399 218.036 143.325 218.036H168.011C168.937 218.036 169.554 218.616 169.554 219.484V225.276C169.554 226.145 168.937 226.724 168.011 226.724H143.325C142.399 226.724 141.782 226.145 141.782 225.276V219.484ZM146.411 206.453C146.256 206.453 145.948 206.453 145.793 206.308C145.639 206.308 145.485 206.164 145.331 206.019C145.022 205.729 144.868 205.44 144.868 205.005C144.868 204.86 144.868 204.571 145.022 204.426C145.099 204.354 145.138 204.281 145.176 204.209C145.215 204.136 145.253 204.064 145.331 203.992C145.485 203.847 145.639 203.702 145.793 203.702C146.411 203.412 147.028 203.557 147.491 203.992C147.645 204.136 147.799 204.281 147.799 204.426C147.954 204.571 147.954 204.86 147.954 205.005V205.295C147.954 205.355 147.954 205.391 147.942 205.422C147.926 205.465 147.889 205.5 147.799 205.584C147.799 205.657 147.761 205.693 147.722 205.729C147.684 205.765 147.645 205.802 147.645 205.874L147.491 206.019C147.336 206.019 147.336 206.164 147.336 206.164C147.259 206.164 147.221 206.2 147.182 206.236C147.144 206.272 147.105 206.308 147.028 206.308C146.951 206.308 146.912 206.344 146.873 206.381C146.835 206.417 146.796 206.453 146.719 206.453H146.411ZM145.331 223.394C145.639 223.683 145.948 223.828 146.411 223.828C146.873 223.828 147.182 223.683 147.491 223.394C147.568 223.321 147.606 223.249 147.645 223.177C147.684 223.104 147.722 223.032 147.799 222.959C147.954 222.815 147.954 222.525 147.954 222.38C147.954 222.235 147.954 221.946 147.799 221.801C147.799 221.656 147.645 221.512 147.491 221.367C146.873 220.788 145.948 220.788 145.331 221.367C145.253 221.439 145.215 221.512 145.176 221.584C145.138 221.656 145.099 221.729 145.022 221.801C144.868 221.946 144.868 222.235 144.868 222.38C144.868 222.815 145.022 223.104 145.331 223.394Z" fill="#1890FF"/>
<rect opacity="0.01" x="200.316" y="196.199" width="37.0764" height="34.9876" fill="#1890FF"/>
<path fill-rule="evenodd" clip-rule="evenodd" d="M206.512 212.246H231.198C233.821 212.246 235.827 210.363 235.827 207.902V202.11C235.827 199.649 233.821 197.766 231.198 197.766H206.512C203.889 197.766 201.884 199.649 201.884 202.11V207.902C201.884 210.363 203.889 212.246 206.512 212.246ZM204.969 202.109C204.969 201.241 205.586 200.661 206.511 200.661H231.197C232.123 200.661 232.74 201.241 232.74 202.109V207.901C232.74 208.77 232.123 209.349 231.197 209.349H206.511C205.586 209.349 204.969 208.77 204.969 207.901V202.109ZM231.197 229.62H206.511C203.889 229.62 201.883 227.738 201.883 225.276V219.484C201.883 217.023 203.889 215.141 206.511 215.141H231.197C233.82 215.141 235.826 217.023 235.826 219.484V225.276C235.826 227.738 233.82 229.62 231.197 229.62ZM204.969 219.484C204.969 218.616 205.586 218.036 206.511 218.036H231.197C232.123 218.036 232.74 218.616 232.74 219.484V225.276C232.74 226.145 232.123 226.724 231.197 226.724H206.511C205.586 226.724 204.969 226.145 204.969 225.276V219.484ZM209.597 206.453C209.443 206.453 209.134 206.453 208.98 206.308C208.826 206.308 208.671 206.164 208.517 206.019C208.209 205.729 208.054 205.44 208.054 205.005C208.054 204.86 208.054 204.571 208.209 204.426C208.286 204.354 208.324 204.281 208.363 204.209C208.401 204.136 208.44 204.064 208.517 203.992C208.671 203.847 208.826 203.702 208.98 203.702C209.597 203.412 210.214 203.557 210.677 203.992C210.831 204.136 210.986 204.281 210.986 204.426C211.14 204.571 211.14 204.86 211.14 205.005V205.295C211.14 205.355 211.14 205.391 211.129 205.422C211.113 205.465 211.075 205.5 210.986 205.584C210.986 205.657 210.947 205.693 210.909 205.729C210.87 205.765 210.831 205.802 210.831 205.874L210.677 206.019C210.523 206.019 210.523 206.164 210.523 206.164C210.446 206.164 210.407 206.2 210.369 206.236C210.33 206.272 210.291 206.308 210.214 206.308C210.137 206.308 210.099 206.344 210.06 206.381C210.021 206.417 209.983 206.453 209.906 206.453H209.597ZM208.517 223.394C208.826 223.683 209.134 223.828 209.597 223.828C210.06 223.828 210.369 223.683 210.677 223.394C210.754 223.321 210.793 223.249 210.831 223.177C210.87 223.104 210.909 223.032 210.986 222.959C211.14 222.815 211.14 222.525 211.14 222.38C211.14 222.235 211.14 221.946 210.986 221.801C210.986 221.656 210.831 221.512 210.677 221.367C210.06 220.788 209.134 220.788 208.517 221.367C208.44 221.439 208.401 221.512 208.363 221.584C208.324 221.656 208.286 221.729 208.209 221.801C208.054 221.946 208.054 222.235 208.054 222.38C208.054 222.815 208.209 223.104 208.517 223.394Z" fill="#1890FF"/>
<rect opacity="0.01" x="265.069" y="196.199" width="36.5542" height="34.9876" fill="#1890FF"/>
<path fill-rule="evenodd" clip-rule="evenodd" d="M271.194 212.246H295.5C298.083 212.246 300.058 210.363 300.058 207.902V202.11C300.058 199.649 298.083 197.766 295.5 197.766H271.194C268.612 197.766 266.637 199.649 266.637 202.11V207.902C266.637 210.363 268.612 212.246 271.194 212.246ZM269.674 202.109C269.674 201.241 270.282 200.661 271.193 200.661H295.499C296.411 200.661 297.019 201.241 297.019 202.109V207.901C297.019 208.77 296.411 209.349 295.499 209.349H271.193C270.282 209.349 269.674 208.77 269.674 207.901V202.109ZM295.499 229.62H271.193C268.611 229.62 266.636 227.738 266.636 225.276V219.484C266.636 217.023 268.611 215.141 271.193 215.141H295.499C298.082 215.141 300.057 217.023 300.057 219.484V225.276C300.057 227.738 298.082 229.62 295.499 229.62ZM269.674 219.484C269.674 218.616 270.282 218.036 271.193 218.036H295.499C296.411 218.036 297.019 218.616 297.019 219.484V225.276C297.019 226.145 296.411 226.724 295.499 226.724H271.193C270.282 226.724 269.674 226.145 269.674 225.276V219.484ZM274.232 206.453C274.08 206.453 273.776 206.453 273.624 206.308C273.472 206.308 273.32 206.164 273.168 206.019C272.864 205.729 272.712 205.44 272.712 205.005C272.712 204.86 272.712 204.571 272.864 204.426C272.94 204.354 272.978 204.281 273.016 204.209C273.054 204.136 273.092 204.064 273.168 203.992C273.32 203.847 273.472 203.702 273.624 203.702C274.232 203.412 274.839 203.557 275.295 203.992C275.447 204.136 275.599 204.281 275.599 204.426C275.751 204.571 275.751 204.86 275.751 205.005V205.295C275.751 205.356 275.751 205.391 275.739 205.422C275.724 205.465 275.687 205.5 275.599 205.584C275.599 205.657 275.561 205.693 275.523 205.729C275.485 205.765 275.447 205.802 275.447 205.874L275.295 206.019C275.143 206.019 275.143 206.164 275.143 206.164C275.067 206.164 275.029 206.2 274.991 206.236C274.953 206.272 274.915 206.308 274.839 206.308C274.763 206.308 274.725 206.344 274.687 206.381C274.649 206.417 274.611 206.453 274.535 206.453H274.232ZM273.168 223.394C273.472 223.683 273.776 223.828 274.232 223.828C274.687 223.828 274.991 223.683 275.295 223.394C275.371 223.321 275.409 223.249 275.447 223.177C275.485 223.104 275.523 223.032 275.599 222.959C275.751 222.815 275.751 222.525 275.751 222.38C275.751 222.235 275.751 221.946 275.599 221.801C275.599 221.656 275.447 221.512 275.295 221.367C274.687 220.788 273.776 220.788 273.168 221.367C273.092 221.439 273.054 221.512 273.016 221.584C272.978 221.656 272.94 221.729 272.864 221.801C272.712 221.946 272.712 222.235 272.712 222.38C272.712 222.815 272.864 223.104 273.168 223.394Z" fill="#1890FF"/>
<g filter="url(#filter2_d)">
<rect x="102" y="316" width="171" height="128.152" rx="10" fill="white"/>
</g>
<rect x="135.414" y="321.11" width="130.51" height="9.04138" rx="4.52069" fill="#003C75" fill-opacity="0.123498"/>
<rect x="109.862" y="338.014" width="35.7724" height="100.634" rx="5" fill="#003C75" fill-opacity="0.123498"/>
<rect x="153.497" y="338.014" width="112.428" height="100.634" rx="5" fill="#003C75" fill-opacity="0.123498"/>
<circle cx="112.417" cy="325.631" r="2.16207" fill="#FF5B52"/>
<circle cx="119.1" cy="325.631" r="2.16207" fill="#E5C02A"/>
<circle cx="125.783" cy="325.631" r="2.16207" fill="#54C12C"/>
<defs>
<filter id="filter0_d" x="112" y="0" width="150" height="150" filterUnits="userSpaceOnUse" color-interpolation-filters="sRGB">
<feFlood flood-opacity="0" result="BackgroundImageFix"/>
<feColorMatrix in="SourceAlpha" type="matrix" values="0 0 0 0 0 0 0 0 0 0 0 0 0 0 0 0 0 0 127 0" result="hardAlpha"/>
<feMorphology radius="10" operator="erode" in="SourceAlpha" result="effect1_dropShadow"/>
<feOffset dy="11"/>
<feGaussianBlur stdDeviation="20"/>
<feColorMatrix type="matrix" values="0 0 0 0 0.027451 0 0 0 0 0.52549 0 0 0 0 1 0 0 0 1 0"/>
<feBlend mode="normal" in2="BackgroundImageFix" result="effect1_dropShadow"/>
<feBlend mode="normal" in="SourceGraphic" in2="effect1_dropShadow" result="shape"/>
</filter>
<filter id="filter1_d" x="0" y="130" width="374" height="170.863" filterUnits="userSpaceOnUse" color-interpolation-filters="sRGB">
<feFlood flood-opacity="0" result="BackgroundImageFix"/>
<feColorMatrix in="SourceAlpha" type="matrix" values="0 0 0 0 0 0 0 0 0 0 0 0 0 0 0 0 0 0 127 0" result="hardAlpha"/>
<feOffset dy="2"/>
<feGaussianBlur stdDeviation="20"/>
<feColorMatrix type="matrix" values="0 0 0 0 0.027451 0 0 0 0 0.52549 0 0 0 0 1 0 0 0 0.0718149 0"/>
<feBlend mode="normal" in2="BackgroundImageFix" result="effect1_dropShadow"/>
<feBlend mode="normal" in="SourceGraphic" in2="effect1_dropShadow" result="shape"/>
</filter>
<filter id="filter2_d" x="72" y="288" width="231" height="188.152" filterUnits="userSpaceOnUse" color-interpolation-filters="sRGB">
<feFlood flood-opacity="0" result="BackgroundImageFix"/>
<feColorMatrix in="SourceAlpha" type="matrix" values="0 0 0 0 0 0 0 0 0 0 0 0 0 0 0 0 0 0 127 0" result="hardAlpha"/>
<feMorphology radius="10" operator="erode" in="SourceAlpha" result="effect1_dropShadow"/>
<feOffset dy="2"/>
<feGaussianBlur stdDeviation="20"/>
<feColorMatrix type="matrix" values="0 0 0 0 0.027451 0 0 0 0 0.52549 0 0 0 0 1 0 0 0 0.200038 0"/>
<feBlend mode="normal" in2="BackgroundImageFix" result="effect1_dropShadow"/>
<feBlend mode="normal" in="SourceGraphic" in2="effect1_dropShadow" result="shape"/>
</filter>
</defs>
</svg>
