<?xml version="1.0" encoding="UTF-8"?>
<svg width="26px" height="26px" viewBox="0 0 26 26" version="1.1" xmlns="http://www.w3.org/2000/svg" xmlns:xlink="http://www.w3.org/1999/xlink">
    <title>external</title>
    <g id="Join" stroke="none" stroke-width="1" fill="none" fill-rule="evenodd">
        <g id="PageJoin" transform="translate(-825.000000, -516.000000)" fill="#000000" fill-rule="nonzero">
            <g id="external" transform="translate(825.000000, 516.000000)">
                <rect id="Rectangle" opacity="0" x="0" y="0" width="26" height="26"></rect>
                <path d="M19.5,24 L4.33333334,24 C1.95,24 0,22.02 0,19.6 L0,8.6 C0,6.17999999 1.95,4.19999999 4.33333334,4.19999999 L16.25,4.19999999 C16.9,4.19999999 17.3333333,4.64 17.3333333,5.3 C17.3333333,5.96 16.9,6.40000001 16.25,6.40000001 L4.33333334,6.40000001 C3.14166666,6.40000001 2.16666666,7.39000001 2.16666666,8.6 L2.16666666,19.6 C2.16666666,20.81 3.14166666,21.8 4.33333331,21.8 L19.5,21.8 C20.6916666,21.8 21.6666666,20.81 21.6666666,19.6 L21.6666666,11.9 C21.6666666,11.24 22.1,10.8 22.75,10.8 C23.4,10.8 23.8333333,11.24 23.8333333,11.9 L23.8333333,19.6 C23.8333333,22.02 21.8833333,24 19.5,24 Z M16.25,13 C15.925,13 15.7083333,12.89 15.4916666,12.67 C15.0583333,12.23 15.0583333,11.57 15.4916666,11.13 L24.1583333,2.33000003 C24.5916666,1.89000002 25.2416666,1.89000002 25.6749999,2.33000003 C26.1083333,2.77000003 26.1083333,3.43000003 25.6749999,3.87000002 L17.0083333,12.67 C16.7916666,12.89 16.575,13 16.25,13 Z M24.9166666,4.20000002 L20.5833333,4.20000002 C19.9333333,4.20000002 19.5,3.76000001 19.5,3.10000001 C19.5,2.44000001 19.9333333,2 20.5833333,2 L24.9166666,2 C25.5666666,2 26,2.44000001 26,3.10000001 C26,3.76000001 25.5666666,4.20000002 24.9166666,4.20000002 Z M24.9166666,8.6 C24.2666666,8.6 23.8333333,8.15999999 23.8333333,7.5 L23.8333333,3.10000001 C23.8333333,2.44000001 24.2666667,2 24.9166667,2 C25.5666667,2 26,2.44000001 26,3.10000001 L26,7.5 C26,8.16000002 25.5666666,8.6 24.9166666,8.6 Z" id="Shape"></path>
            </g>
        </g>
    </g>
</svg>