<svg width="374" height="171" viewBox="0 0 374 171" fill="none" xmlns="http://www.w3.org/2000/svg">
<g id="Server">
<g id="&#231;&#159;&#169;&#229;&#189;&#162;" filter="url(#filter0_d)">
<rect x="40" y="38" width="294" height="90.8632" rx="45.4316" fill="white"/>
</g>
<g id="server">
<rect id="&#231;&#159;&#169;&#229;&#189;&#162;_2" opacity="0.01" x="72.8987" y="66.1989" width="36.5542" height="34.9876" fill="#1890FF"/>
<path id="&#229;&#189;&#162;&#231;&#138;&#182;" fill-rule="evenodd" clip-rule="evenodd" d="M79.0237 82.2457H103.33C105.912 82.2457 107.887 80.3634 107.887 77.9019V72.1102C107.887 69.6488 105.912 67.7665 103.33 67.7665H79.0237C76.4412 67.7665 74.4663 69.6488 74.4663 72.1102V77.9019C74.4663 80.3634 76.4412 82.2457 79.0237 82.2457ZM77.5036 72.1093C77.5036 71.2406 78.1112 70.6614 79.0227 70.6614H103.329C104.24 70.6614 104.848 71.2406 104.848 72.1093V77.901C104.848 78.7698 104.24 79.3489 103.329 79.3489H79.0227C78.1112 79.3489 77.5036 78.7698 77.5036 77.901V72.1093ZM103.329 99.6199H79.0227C76.4402 99.6199 74.4653 97.7376 74.4653 95.2761V89.4844C74.4653 87.0229 76.4402 85.1406 79.0227 85.1406H103.329C105.911 85.1406 107.886 87.0229 107.886 89.4844V95.2761C107.886 97.7376 105.911 99.6199 103.329 99.6199ZM77.5036 89.4844C77.5036 88.6157 78.1112 88.0365 79.0227 88.0365H103.329C104.24 88.0365 104.848 88.6157 104.848 89.4844V95.2761C104.848 96.1449 104.24 96.724 103.329 96.724H79.0227C78.1112 96.724 77.5036 96.1449 77.5036 95.2761V89.4844ZM82.061 76.4531C81.9091 76.4531 81.6053 76.4531 81.4534 76.3083C81.3015 76.3083 81.1495 76.1635 80.9976 76.0187C80.6938 75.7291 80.5419 75.4395 80.5419 75.0052C80.5419 74.8604 80.5419 74.5708 80.6938 74.426C80.7698 74.3536 80.8077 74.2812 80.8457 74.2088C80.8837 74.1364 80.9217 74.064 80.9976 73.9916C81.1495 73.8468 81.3015 73.702 81.4534 73.702C82.061 73.4125 82.6687 73.5572 83.1244 73.9916C83.2763 74.1364 83.4282 74.2812 83.4282 74.426C83.5802 74.5708 83.5802 74.8604 83.5802 75.0052V75.2948C83.5802 75.3556 83.5802 75.3909 83.5689 75.4221C83.5533 75.4651 83.5163 75.5004 83.4282 75.5843C83.4282 75.6567 83.3903 75.6929 83.3523 75.7291C83.3143 75.7653 83.2763 75.8015 83.2763 75.8739L83.1244 76.0187C82.9725 76.0187 82.9725 76.1635 82.9725 76.1635C82.8965 76.1635 82.8586 76.1997 82.8206 76.2359C82.7826 76.2721 82.7446 76.3083 82.6687 76.3083C82.5927 76.3083 82.5547 76.3445 82.5168 76.3807C82.4788 76.4169 82.4408 76.4531 82.3648 76.4531H82.061ZM80.9976 93.3938C81.3015 93.6834 81.6053 93.8282 82.061 93.8282C82.5168 93.8282 82.8206 93.6834 83.1244 93.3938C83.2004 93.3214 83.2384 93.249 83.2763 93.1766C83.3143 93.1042 83.3523 93.0318 83.4282 92.9594C83.5802 92.8146 83.5802 92.5251 83.5802 92.3803C83.5802 92.2355 83.5802 91.9459 83.4282 91.8011C83.4282 91.6563 83.2763 91.5115 83.1244 91.3667C82.5168 90.7876 81.6053 90.7876 80.9976 91.3667C80.9217 91.4391 80.8837 91.5115 80.8457 91.5839C80.8077 91.6563 80.7698 91.7287 80.6938 91.8011C80.5419 91.9459 80.5419 92.2355 80.5419 92.3803C80.5419 92.8146 80.6938 93.1042 80.9976 93.3938Z" fill="#1890FF"/>
</g>
<g id="server&#229;&#164;&#135;&#228;&#187;&#189;">
<rect id="&#231;&#159;&#169;&#229;&#189;&#162;_3" opacity="0.01" x="137.13" y="66.1989" width="37.0764" height="34.9876" fill="#1890FF"/>
<path id="&#229;&#189;&#162;&#231;&#138;&#182;_2" fill-rule="evenodd" clip-rule="evenodd" d="M143.326 82.2457H168.012C170.635 82.2457 172.64 80.3634 172.64 77.9019V72.1102C172.64 69.6488 170.635 67.7665 168.012 67.7665H143.326C140.703 67.7665 138.697 69.6488 138.697 72.1102V77.9019C138.697 80.3634 140.703 82.2457 143.326 82.2457ZM141.782 72.1093C141.782 71.2406 142.399 70.6614 143.325 70.6614H168.011C168.937 70.6614 169.554 71.2406 169.554 72.1093V77.901C169.554 78.7698 168.937 79.3489 168.011 79.3489H143.325C142.399 79.3489 141.782 78.7698 141.782 77.901V72.1093ZM168.011 99.6199H143.325C140.702 99.6199 138.696 97.7376 138.696 95.2761V89.4844C138.696 87.0229 140.702 85.1406 143.325 85.1406H168.011C170.634 85.1406 172.639 87.0229 172.639 89.4844V95.2761C172.639 97.7376 170.634 99.6199 168.011 99.6199ZM141.782 89.4844C141.782 88.6157 142.399 88.0365 143.325 88.0365H168.011C168.937 88.0365 169.554 88.6157 169.554 89.4844V95.2761C169.554 96.1449 168.937 96.724 168.011 96.724H143.325C142.399 96.724 141.782 96.1449 141.782 95.2761V89.4844ZM146.411 76.4531C146.256 76.4531 145.948 76.4531 145.793 76.3083C145.639 76.3083 145.485 76.1635 145.331 76.0187C145.022 75.7291 144.868 75.4395 144.868 75.0052C144.868 74.8604 144.868 74.5708 145.022 74.426C145.099 74.3536 145.138 74.2812 145.176 74.2088C145.215 74.1364 145.253 74.064 145.331 73.9916C145.485 73.8468 145.639 73.702 145.793 73.702C146.411 73.4125 147.028 73.5572 147.491 73.9916C147.645 74.1364 147.799 74.2812 147.799 74.426C147.954 74.5708 147.954 74.8604 147.954 75.0052V75.2948C147.954 75.3554 147.954 75.3906 147.942 75.4217C147.926 75.4649 147.889 75.5002 147.799 75.5843C147.799 75.6567 147.761 75.6929 147.722 75.7291C147.684 75.7653 147.645 75.8015 147.645 75.8739L147.491 76.0187C147.336 76.0187 147.336 76.1635 147.336 76.1635C147.259 76.1635 147.221 76.1997 147.182 76.2359C147.144 76.2721 147.105 76.3083 147.028 76.3083C146.951 76.3083 146.912 76.3445 146.873 76.3807C146.835 76.4169 146.796 76.4531 146.719 76.4531H146.411ZM145.331 93.3938C145.639 93.6834 145.948 93.8282 146.411 93.8282C146.873 93.8282 147.182 93.6834 147.491 93.3938C147.568 93.3214 147.606 93.249 147.645 93.1766C147.684 93.1042 147.722 93.0318 147.799 92.9594C147.954 92.8146 147.954 92.5251 147.954 92.3803C147.954 92.2355 147.954 91.9459 147.799 91.8011C147.799 91.6563 147.645 91.5115 147.491 91.3667C146.873 90.7876 145.948 90.7876 145.331 91.3667C145.253 91.4391 145.215 91.5115 145.176 91.5839C145.138 91.6563 145.099 91.7287 145.022 91.8011C144.868 91.9459 144.868 92.2355 144.868 92.3803C144.868 92.8146 145.022 93.1042 145.331 93.3938Z" fill="#1890FF"/>
</g>
<g id="server&#229;&#164;&#135;&#228;&#187;&#189; 2">
<rect id="&#231;&#159;&#169;&#229;&#189;&#162;_4" opacity="0.01" x="200.316" y="66.1989" width="37.0764" height="34.9876" fill="#1890FF"/>
<path id="&#229;&#189;&#162;&#231;&#138;&#182;_3" fill-rule="evenodd" clip-rule="evenodd" d="M206.512 82.2457H231.198C233.821 82.2457 235.827 80.3634 235.827 77.9019V72.1102C235.827 69.6488 233.821 67.7665 231.198 67.7665H206.512C203.889 67.7665 201.884 69.6488 201.884 72.1102V77.9019C201.884 80.3634 203.889 82.2457 206.512 82.2457ZM204.969 72.1093C204.969 71.2406 205.586 70.6614 206.511 70.6614H231.197C232.123 70.6614 232.74 71.2406 232.74 72.1093V77.901C232.74 78.7698 232.123 79.3489 231.197 79.3489H206.511C205.586 79.3489 204.969 78.7698 204.969 77.901V72.1093ZM231.197 99.6199H206.511C203.889 99.6199 201.883 97.7376 201.883 95.2761V89.4844C201.883 87.0229 203.889 85.1406 206.511 85.1406H231.197C233.82 85.1406 235.826 87.0229 235.826 89.4844V95.2761C235.826 97.7376 233.82 99.6199 231.197 99.6199ZM204.969 89.4844C204.969 88.6157 205.586 88.0365 206.511 88.0365H231.197C232.123 88.0365 232.74 88.6157 232.74 89.4844V95.2761C232.74 96.1449 232.123 96.724 231.197 96.724H206.511C205.586 96.724 204.969 96.1449 204.969 95.2761V89.4844ZM209.597 76.4531C209.443 76.4531 209.134 76.4531 208.98 76.3083C208.826 76.3083 208.671 76.1635 208.517 76.0187C208.209 75.7291 208.054 75.4395 208.054 75.0052C208.054 74.8604 208.054 74.5708 208.209 74.426C208.286 74.3536 208.324 74.2812 208.363 74.2088C208.401 74.1364 208.44 74.064 208.517 73.9916C208.671 73.8468 208.826 73.702 208.98 73.702C209.597 73.4125 210.214 73.5572 210.677 73.9916C210.831 74.1364 210.986 74.2812 210.986 74.426C211.14 74.5708 211.14 74.8604 211.14 75.0052V75.2948C211.14 75.3554 211.14 75.3906 211.129 75.4217C211.113 75.4649 211.075 75.5002 210.986 75.5843C210.986 75.6567 210.947 75.6929 210.909 75.7291C210.87 75.7653 210.831 75.8015 210.831 75.8739L210.677 76.0187C210.523 76.0187 210.523 76.1635 210.523 76.1635C210.446 76.1635 210.407 76.1997 210.369 76.2359C210.33 76.2721 210.291 76.3083 210.214 76.3083C210.137 76.3083 210.099 76.3445 210.06 76.3807C210.021 76.4169 209.983 76.4531 209.906 76.4531H209.597ZM208.517 93.3938C208.826 93.6834 209.134 93.8282 209.597 93.8282C210.06 93.8282 210.369 93.6834 210.677 93.3938C210.754 93.3214 210.793 93.249 210.831 93.1766C210.87 93.1042 210.909 93.0318 210.986 92.9594C211.14 92.8146 211.14 92.5251 211.14 92.3803C211.14 92.2355 211.14 91.9459 210.986 91.8011C210.986 91.6563 210.831 91.5115 210.677 91.3667C210.06 90.7876 209.134 90.7876 208.517 91.3667C208.44 91.4391 208.401 91.5115 208.363 91.5839C208.324 91.6563 208.286 91.7287 208.209 91.8011C208.054 91.9459 208.054 92.2355 208.054 92.3803C208.054 92.8146 208.209 93.1042 208.517 93.3938Z" fill="#1890FF"/>
</g>
<g id="server&#229;&#164;&#135;&#228;&#187;&#189; 3">
<rect id="&#231;&#159;&#169;&#229;&#189;&#162;_5" opacity="0.01" x="265.069" y="66.1989" width="36.5542" height="34.9876" fill="#1890FF"/>
<path id="&#229;&#189;&#162;&#231;&#138;&#182;_4" fill-rule="evenodd" clip-rule="evenodd" d="M271.194 82.2457H295.5C298.083 82.2457 300.058 80.3634 300.058 77.9019V72.1102C300.058 69.6488 298.083 67.7665 295.5 67.7665H271.194C268.612 67.7665 266.637 69.6488 266.637 72.1102V77.9019C266.637 80.3634 268.612 82.2457 271.194 82.2457ZM269.674 72.1093C269.674 71.2406 270.282 70.6614 271.193 70.6614H295.499C296.411 70.6614 297.019 71.2406 297.019 72.1093V77.901C297.019 78.7698 296.411 79.3489 295.499 79.3489H271.193C270.282 79.3489 269.674 78.7698 269.674 77.901V72.1093ZM295.499 99.6199H271.193C268.611 99.6199 266.636 97.7376 266.636 95.2761V89.4844C266.636 87.0229 268.611 85.1406 271.193 85.1406H295.499C298.082 85.1406 300.057 87.0229 300.057 89.4844V95.2761C300.057 97.7376 298.082 99.6199 295.499 99.6199ZM269.674 89.4844C269.674 88.6157 270.282 88.0365 271.193 88.0365H295.499C296.411 88.0365 297.019 88.6157 297.019 89.4844V95.2761C297.019 96.1449 296.411 96.724 295.499 96.724H271.193C270.282 96.724 269.674 96.1449 269.674 95.2761V89.4844ZM274.232 76.4531C274.08 76.4531 273.776 76.4531 273.624 76.3083C273.472 76.3083 273.32 76.1635 273.168 76.0187C272.864 75.7291 272.712 75.4395 272.712 75.0052C272.712 74.8604 272.712 74.5708 272.864 74.426C272.94 74.3536 272.978 74.2812 273.016 74.2088C273.054 74.1364 273.092 74.064 273.168 73.9916C273.32 73.8468 273.472 73.702 273.624 73.702C274.232 73.4125 274.839 73.5572 275.295 73.9916C275.447 74.1364 275.599 74.2812 275.599 74.426C275.751 74.5708 275.751 74.8604 275.751 75.0052V75.2948C275.751 75.3556 275.751 75.3909 275.739 75.4221C275.724 75.4651 275.687 75.5004 275.599 75.5843C275.599 75.6567 275.561 75.6929 275.523 75.7291C275.485 75.7653 275.447 75.8015 275.447 75.8739L275.295 76.0187C275.143 76.0187 275.143 76.1635 275.143 76.1635C275.067 76.1635 275.029 76.1997 274.991 76.2359C274.953 76.2721 274.915 76.3083 274.839 76.3083C274.763 76.3083 274.725 76.3445 274.687 76.3807C274.649 76.4169 274.611 76.4531 274.535 76.4531H274.232ZM273.168 93.3938C273.472 93.6834 273.776 93.8282 274.232 93.8282C274.687 93.8282 274.991 93.6834 275.295 93.3938C275.371 93.3214 275.409 93.249 275.447 93.1766C275.485 93.1042 275.523 93.0318 275.599 92.9594C275.751 92.8146 275.751 92.5251 275.751 92.3803C275.751 92.2355 275.751 91.9459 275.599 91.8011C275.599 91.6563 275.447 91.5115 275.295 91.3667C274.687 90.7876 273.776 90.7876 273.168 91.3667C273.092 91.4391 273.054 91.5115 273.016 91.5839C272.978 91.6563 272.94 91.7287 272.864 91.8011C272.712 91.9459 272.712 92.2355 272.712 92.3803C272.712 92.8146 272.864 93.1042 273.168 93.3938Z" fill="#1890FF"/>
</g>
</g>
<defs>
<filter id="filter0_d" x="0" y="0" width="374" height="170.863" filterUnits="userSpaceOnUse" color-interpolation-filters="sRGB">
<feFlood flood-opacity="0" result="BackgroundImageFix"/>
<feColorMatrix in="SourceAlpha" type="matrix" values="0 0 0 0 0 0 0 0 0 0 0 0 0 0 0 0 0 0 127 0" result="hardAlpha"/>
<feOffset dy="2"/>
<feGaussianBlur stdDeviation="20"/>
<feColorMatrix type="matrix" values="0 0 0 0 0.027451 0 0 0 0 0.52549 0 0 0 0 1 0 0 0 0.0718149 0"/>
<feBlend mode="normal" in2="BackgroundImageFix" result="effect1_dropShadow"/>
<feBlend mode="normal" in="SourceGraphic" in2="effect1_dropShadow" result="shape"/>
</filter>
</defs>
</svg>
