<?xml version="1.0" encoding="UTF-8"?>
<svg width="643px" height="254px" viewBox="0 0 643 254" version="1.1" xmlns="http://www.w3.org/2000/svg" xmlns:xlink="http://www.w3.org/1999/xlink">
    <title>Server</title>
    <defs>
        <rect id="path-1" x="0" y="0" width="563" height="174" rx="63"></rect>
        <filter x="-10.8%" y="-33.9%" width="121.7%" height="170.1%" filterUnits="objectBoundingBox" id="filter-2">
            <feOffset dx="0" dy="2" in="SourceAlpha" result="shadowOffsetOuter1"></feOffset>
            <feGaussianBlur stdDeviation="20" in="shadowOffsetOuter1" result="shadowBlurOuter1"></feGaussianBlur>
            <feColorMatrix values="0 0 0 0 0.0274509804   0 0 0 0 0.525490196   0 0 0 0 1  0 0 0 0.0718149038 0" type="matrix" in="shadowBlurOuter1"></feColorMatrix>
        </filter>
    </defs>
    <g id="Landing-Page" stroke="none" stroke-width="1" fill="none" fill-rule="evenodd">
        <g id="Landing-V0.2" transform="translate(-796.000000, -1404.000000)">
            <g id="Body" transform="translate(-746.000000, -2710.000000)">
                <g id="Page2" transform="translate(287.000000, 3864.000000)">
                    <g id="Server" transform="translate(1295.000000, 288.000000)">
                        <g id="矩形">
                            <use fill="black" fill-opacity="1" filter="url(#filter-2)" xlink:href="#path-1"></use>
                            <use fill="#FFFFFF" fill-rule="evenodd" xlink:href="#path-1"></use>
                        </g>
                        <g id="server" transform="translate(63.000000, 54.000000)" fill="#1890FF" fill-rule="nonzero">
                            <rect id="矩形" opacity="0" x="0" y="0" width="70" height="67"></rect>
                            <path d="M58.2727273,30.7272727 L11.7272727,30.7272727 C6.78181821,30.7272727 3,27.1227272 3,22.4090909 L3,11.3181818 C3,6.60454548 6.78181821,3 11.7272727,3 L58.2727273,3 C63.2181818,3 67,6.60454548 67,11.3181818 L67,22.4090909 C67,27.1227272 63.2181818,30.7272727 58.2727273,30.7272727 Z M11.7272727,8.54545453 C9.98181819,8.54545453 8.8181818,9.65454546 8.8181818,11.3181818 L8.8181818,22.4090909 C8.8181818,24.0727272 9.98181819,25.1818182 11.7272727,25.1818182 L58.2727273,25.1818182 C60.0181818,25.1818182 61.1818182,24.0727272 61.1818182,22.4090909 L61.1818182,11.3181818 C61.1818182,9.65454546 60.0181818,8.54545453 58.2727273,8.54545453 L11.7272727,8.54545453 Z M58.2727273,64 L11.7272727,64 C6.78181821,64 3,60.3954545 3,55.6818182 L3,44.5909091 C3,39.8772728 6.78181821,36.2727273 11.7272727,36.2727273 L58.2727273,36.2727273 C63.2181818,36.2727273 67,39.8772728 67,44.5909091 L67,55.6818182 C67,60.3954545 63.2181818,64 58.2727273,64 Z M11.7272727,41.8181818 C9.98181819,41.8181818 8.8181818,42.9272728 8.8181818,44.5909091 L8.8181818,55.6818182 C8.8181818,57.3454545 9.98181819,58.4545455 11.7272727,58.4545455 L58.2727273,58.4545455 C60.0181818,58.4545455 61.1818182,57.3454545 61.1818182,55.6818182 L61.1818182,44.5909091 C61.1818182,42.9272728 60.0181818,41.8181818 58.2727273,41.8181818 L11.7272727,41.8181818 Z M17.5454545,19.6363636 C17.2545454,19.6363636 16.6727273,19.6363636 16.3818181,19.3590909 C16.090909,19.3590909 15.8,19.0818181 15.5090909,18.8045455 C14.9272727,18.25 14.6363636,17.6954545 14.6363636,16.8636364 C14.6363636,16.5863636 14.6363636,16.0318182 14.9272727,15.7545454 C15.2181818,15.4772727 15.2181818,15.2 15.5090909,14.9227272 C15.8,14.6454545 16.090909,14.3681818 16.3818181,14.3681818 C17.5454545,13.8136364 18.7090909,14.0909091 19.5818182,14.9227272 C19.8727273,15.2 20.1636364,15.4772727 20.1636364,15.7545454 C20.4545455,16.0318182 20.4545455,16.5863636 20.4545455,16.8636364 L20.4545455,17.4181818 C20.4545455,17.6954545 20.4545455,17.6954545 20.1636364,17.9727273 C20.1636364,18.25 19.8727272,18.25 19.8727272,18.5272727 L19.5818182,18.8045455 C19.2909091,18.8045455 19.2909091,19.0818182 19.2909091,19.0818181 C19,19.0818181 19,19.3590909 18.7090909,19.3590909 C18.4181819,19.3590909 18.4181818,19.6363636 18.1272727,19.6363636 L17.5454545,19.6363636 Z M17.5454545,52.9090909 C16.6727273,52.9090909 16.0909091,52.6318182 15.5090909,52.0772728 C14.9272727,51.5227273 14.6363636,50.9681818 14.6363636,50.1363636 C14.6363636,49.8590909 14.6363636,49.3045455 14.9272727,49.0272727 C15.2181818,48.75 15.2181818,48.4727273 15.5090909,48.1954545 C16.6727273,47.0863636 18.4181818,47.0863636 19.5818182,48.1954545 C19.8727273,48.4727273 20.1636364,48.75 20.1636364,49.0272727 C20.4545455,49.3045455 20.4545455,49.8590909 20.4545455,50.1363636 C20.4545455,50.4136364 20.4545455,50.9681818 20.1636364,51.2454546 C19.8727272,51.5227273 19.8727272,51.8 19.5818182,52.0772728 C19,52.6318182 18.4181818,52.9090909 17.5454545,52.9090909 Z" id="形状"></path>
                        </g>
                        <g id="server备份" transform="translate(186.000000, 54.000000)" fill="#1890FF" fill-rule="nonzero">
                            <rect id="矩形" opacity="0" x="0" y="0" width="71" height="67"></rect>
                            <path d="M59.1363636,30.7272727 L11.8636364,30.7272727 C6.84090912,30.7272727 3,27.1227272 3,22.4090909 L3,11.3181818 C3,6.60454548 6.84090912,3 11.8636364,3 L59.1363636,3 C64.1590909,3 68,6.60454548 68,11.3181818 L68,22.4090909 C68,27.1227272 64.1590909,30.7272727 59.1363636,30.7272727 Z M11.8636364,8.54545453 C10.0909091,8.54545453 8.90909089,9.65454546 8.90909089,11.3181818 L8.90909089,22.4090909 C8.90909089,24.0727272 10.0909091,25.1818182 11.8636364,25.1818182 L59.1363636,25.1818182 C60.9090909,25.1818182 62.0909091,24.0727272 62.0909091,22.4090909 L62.0909091,11.3181818 C62.0909091,9.65454546 60.9090909,8.54545453 59.1363636,8.54545453 L11.8636364,8.54545453 Z M59.1363636,64 L11.8636364,64 C6.84090912,64 3,60.3954545 3,55.6818182 L3,44.5909091 C3,39.8772728 6.84090912,36.2727273 11.8636364,36.2727273 L59.1363636,36.2727273 C64.1590909,36.2727273 68,39.8772728 68,44.5909091 L68,55.6818182 C68,60.3954545 64.1590909,64 59.1363636,64 Z M11.8636364,41.8181818 C10.0909091,41.8181818 8.90909089,42.9272728 8.90909089,44.5909091 L8.90909089,55.6818182 C8.90909089,57.3454545 10.0909091,58.4545455 11.8636364,58.4545455 L59.1363636,58.4545455 C60.9090909,58.4545455 62.0909091,57.3454545 62.0909091,55.6818182 L62.0909091,44.5909091 C62.0909091,42.9272728 60.9090909,41.8181818 59.1363636,41.8181818 L11.8636364,41.8181818 Z M17.7727273,19.6363636 C17.4772727,19.6363636 16.8863636,19.6363636 16.5909091,19.3590909 C16.2954545,19.3590909 16,19.0818181 15.7045454,18.8045455 C15.1136363,18.25 14.8181818,17.6954545 14.8181818,16.8636364 C14.8181818,16.5863636 14.8181818,16.0318182 15.1136363,15.7545454 C15.4090909,15.4772727 15.4090909,15.2 15.7045454,14.9227272 C16,14.6454545 16.2954545,14.3681818 16.5909091,14.3681818 C17.7727273,13.8136364 18.9545454,14.0909091 19.8409091,14.9227272 C20.1363637,15.2 20.4318182,15.4772727 20.4318182,15.7545454 C20.7272727,16.0318182 20.7272727,16.5863636 20.7272727,16.8636364 L20.7272727,17.4181818 C20.7272727,17.6954545 20.7272727,17.6954545 20.4318182,17.9727273 C20.4318182,18.25 20.1363636,18.25 20.1363636,18.5272727 L19.8409091,18.8045455 C19.5454545,18.8045455 19.5454545,19.0818182 19.5454545,19.0818181 C19.25,19.0818181 19.25,19.3590909 18.9545455,19.3590909 C18.659091,19.3590909 18.6590909,19.6363636 18.3636363,19.6363636 L17.7727273,19.6363636 Z M17.7727273,52.9090909 C16.8863636,52.9090909 16.2954546,52.6318182 15.7045454,52.0772728 C15.1136363,51.5227273 14.8181818,50.9681818 14.8181818,50.1363636 C14.8181818,49.8590909 14.8181818,49.3045455 15.1136363,49.0272727 C15.4090909,48.75 15.4090909,48.4727273 15.7045454,48.1954545 C16.8863636,47.0863636 18.6590909,47.0863636 19.8409091,48.1954545 C20.1363637,48.4727273 20.4318182,48.75 20.4318182,49.0272727 C20.7272727,49.3045455 20.7272727,49.8590909 20.7272727,50.1363636 C20.7272727,50.4136364 20.7272727,50.9681818 20.4318182,51.2454546 C20.1363636,51.5227273 20.1363636,51.8 19.8409091,52.0772728 C19.25,52.6318182 18.6590909,52.9090909 17.7727273,52.9090909 Z" id="形状"></path>
                        </g>
                        <g id="server备份-2" transform="translate(307.000000, 54.000000)" fill="#1890FF" fill-rule="nonzero">
                            <rect id="矩形" opacity="0" x="0" y="0" width="71" height="67"></rect>
                            <path d="M59.1363636,30.7272727 L11.8636364,30.7272727 C6.84090912,30.7272727 3,27.1227272 3,22.4090909 L3,11.3181818 C3,6.60454548 6.84090912,3 11.8636364,3 L59.1363636,3 C64.1590909,3 68,6.60454548 68,11.3181818 L68,22.4090909 C68,27.1227272 64.1590909,30.7272727 59.1363636,30.7272727 Z M11.8636364,8.54545453 C10.0909091,8.54545453 8.90909089,9.65454546 8.90909089,11.3181818 L8.90909089,22.4090909 C8.90909089,24.0727272 10.0909091,25.1818182 11.8636364,25.1818182 L59.1363636,25.1818182 C60.9090909,25.1818182 62.0909091,24.0727272 62.0909091,22.4090909 L62.0909091,11.3181818 C62.0909091,9.65454546 60.9090909,8.54545453 59.1363636,8.54545453 L11.8636364,8.54545453 Z M59.1363636,64 L11.8636364,64 C6.84090912,64 3,60.3954545 3,55.6818182 L3,44.5909091 C3,39.8772728 6.84090912,36.2727273 11.8636364,36.2727273 L59.1363636,36.2727273 C64.1590909,36.2727273 68,39.8772728 68,44.5909091 L68,55.6818182 C68,60.3954545 64.1590909,64 59.1363636,64 Z M11.8636364,41.8181818 C10.0909091,41.8181818 8.90909089,42.9272728 8.90909089,44.5909091 L8.90909089,55.6818182 C8.90909089,57.3454545 10.0909091,58.4545455 11.8636364,58.4545455 L59.1363636,58.4545455 C60.9090909,58.4545455 62.0909091,57.3454545 62.0909091,55.6818182 L62.0909091,44.5909091 C62.0909091,42.9272728 60.9090909,41.8181818 59.1363636,41.8181818 L11.8636364,41.8181818 Z M17.7727273,19.6363636 C17.4772727,19.6363636 16.8863636,19.6363636 16.5909091,19.3590909 C16.2954545,19.3590909 16,19.0818181 15.7045454,18.8045455 C15.1136363,18.25 14.8181818,17.6954545 14.8181818,16.8636364 C14.8181818,16.5863636 14.8181818,16.0318182 15.1136363,15.7545454 C15.4090909,15.4772727 15.4090909,15.2 15.7045454,14.9227272 C16,14.6454545 16.2954545,14.3681818 16.5909091,14.3681818 C17.7727273,13.8136364 18.9545454,14.0909091 19.8409091,14.9227272 C20.1363637,15.2 20.4318182,15.4772727 20.4318182,15.7545454 C20.7272727,16.0318182 20.7272727,16.5863636 20.7272727,16.8636364 L20.7272727,17.4181818 C20.7272727,17.6954545 20.7272727,17.6954545 20.4318182,17.9727273 C20.4318182,18.25 20.1363636,18.25 20.1363636,18.5272727 L19.8409091,18.8045455 C19.5454545,18.8045455 19.5454545,19.0818182 19.5454545,19.0818181 C19.25,19.0818181 19.25,19.3590909 18.9545455,19.3590909 C18.659091,19.3590909 18.6590909,19.6363636 18.3636363,19.6363636 L17.7727273,19.6363636 Z M17.7727273,52.9090909 C16.8863636,52.9090909 16.2954546,52.6318182 15.7045454,52.0772728 C15.1136363,51.5227273 14.8181818,50.9681818 14.8181818,50.1363636 C14.8181818,49.8590909 14.8181818,49.3045455 15.1136363,49.0272727 C15.4090909,48.75 15.4090909,48.4727273 15.7045454,48.1954545 C16.8863636,47.0863636 18.6590909,47.0863636 19.8409091,48.1954545 C20.1363637,48.4727273 20.4318182,48.75 20.4318182,49.0272727 C20.7272727,49.3045455 20.7272727,49.8590909 20.7272727,50.1363636 C20.7272727,50.4136364 20.7272727,50.9681818 20.4318182,51.2454546 C20.1363636,51.5227273 20.1363636,51.8 19.8409091,52.0772728 C19.25,52.6318182 18.6590909,52.9090909 17.7727273,52.9090909 Z" id="形状"></path>
                        </g>
                        <g id="server备份-3" transform="translate(431.000000, 54.000000)" fill="#1890FF" fill-rule="nonzero">
                            <rect id="矩形" opacity="0" x="0" y="0" width="70" height="67"></rect>
                            <path d="M58.2727273,30.7272727 L11.7272727,30.7272727 C6.78181821,30.7272727 3,27.1227272 3,22.4090909 L3,11.3181818 C3,6.60454548 6.78181821,3 11.7272727,3 L58.2727273,3 C63.2181818,3 67,6.60454548 67,11.3181818 L67,22.4090909 C67,27.1227272 63.2181818,30.7272727 58.2727273,30.7272727 Z M11.7272727,8.54545453 C9.98181819,8.54545453 8.8181818,9.65454546 8.8181818,11.3181818 L8.8181818,22.4090909 C8.8181818,24.0727272 9.98181819,25.1818182 11.7272727,25.1818182 L58.2727273,25.1818182 C60.0181818,25.1818182 61.1818182,24.0727272 61.1818182,22.4090909 L61.1818182,11.3181818 C61.1818182,9.65454546 60.0181818,8.54545453 58.2727273,8.54545453 L11.7272727,8.54545453 Z M58.2727273,64 L11.7272727,64 C6.78181821,64 3,60.3954545 3,55.6818182 L3,44.5909091 C3,39.8772728 6.78181821,36.2727273 11.7272727,36.2727273 L58.2727273,36.2727273 C63.2181818,36.2727273 67,39.8772728 67,44.5909091 L67,55.6818182 C67,60.3954545 63.2181818,64 58.2727273,64 Z M11.7272727,41.8181818 C9.98181819,41.8181818 8.8181818,42.9272728 8.8181818,44.5909091 L8.8181818,55.6818182 C8.8181818,57.3454545 9.98181819,58.4545455 11.7272727,58.4545455 L58.2727273,58.4545455 C60.0181818,58.4545455 61.1818182,57.3454545 61.1818182,55.6818182 L61.1818182,44.5909091 C61.1818182,42.9272728 60.0181818,41.8181818 58.2727273,41.8181818 L11.7272727,41.8181818 Z M17.5454545,19.6363636 C17.2545454,19.6363636 16.6727273,19.6363636 16.3818181,19.3590909 C16.090909,19.3590909 15.8,19.0818181 15.5090909,18.8045455 C14.9272727,18.25 14.6363636,17.6954545 14.6363636,16.8636364 C14.6363636,16.5863636 14.6363636,16.0318182 14.9272727,15.7545454 C15.2181818,15.4772727 15.2181818,15.2 15.5090909,14.9227272 C15.8,14.6454545 16.090909,14.3681818 16.3818181,14.3681818 C17.5454545,13.8136364 18.7090909,14.0909091 19.5818182,14.9227272 C19.8727273,15.2 20.1636364,15.4772727 20.1636364,15.7545454 C20.4545455,16.0318182 20.4545455,16.5863636 20.4545455,16.8636364 L20.4545455,17.4181818 C20.4545455,17.6954545 20.4545455,17.6954545 20.1636364,17.9727273 C20.1636364,18.25 19.8727272,18.25 19.8727272,18.5272727 L19.5818182,18.8045455 C19.2909091,18.8045455 19.2909091,19.0818182 19.2909091,19.0818181 C19,19.0818181 19,19.3590909 18.7090909,19.3590909 C18.4181819,19.3590909 18.4181818,19.6363636 18.1272727,19.6363636 L17.5454545,19.6363636 Z M17.5454545,52.9090909 C16.6727273,52.9090909 16.0909091,52.6318182 15.5090909,52.0772728 C14.9272727,51.5227273 14.6363636,50.9681818 14.6363636,50.1363636 C14.6363636,49.8590909 14.6363636,49.3045455 14.9272727,49.0272727 C15.2181818,48.75 15.2181818,48.4727273 15.5090909,48.1954545 C16.6727273,47.0863636 18.4181818,47.0863636 19.5818182,48.1954545 C19.8727273,48.4727273 20.1636364,48.75 20.1636364,49.0272727 C20.4545455,49.3045455 20.4545455,49.8590909 20.4545455,50.1363636 C20.4545455,50.4136364 20.4545455,50.9681818 20.1636364,51.2454546 C19.8727272,51.5227273 19.8727272,51.8 19.5818182,52.0772728 C19,52.6318182 18.4181818,52.9090909 17.5454545,52.9090909 Z" id="形状"></path>
                        </g>
                    </g>
                </g>
            </g>
        </g>
    </g>
</svg>